<svg height="512" viewBox="0 0 60 60" width="512" xmlns="http://www.w3.org/2000/svg"><g id="037---Sushi" fill="none"><g id="Icons" transform="translate(1 1)"><path id="Shape" d="m27 9v10.09c-5.6 3.15-10.25 12.81-10.92 18.91-1.002135.0336673-2.0053558-.0131496-3-.14-5.18-.68-9.08-3.49-9.08-6.86v-22c0-3 4.36-5.57 10-5.94.4933333-.04.9933333-.06 1.5-.06 6.35 0 11.5 2.69 11.5 6z" fill="#cfd8dc"/><path id="Shape" d="m24 9v10.09c-5.57 3.13-10.18 12.69-10.9 18.76-5.2-.67-9.1-3.48-9.1-6.85v-22c0-3 4.36-5.57 10-5.94 5.64.37 10 2.94 10 5.94z" fill="#f5f5f5"/><path id="Shape" d="m54 6v22c0 2.66-2.42 5-6 6.14-.8939828.2913686-1.8104011.5087671-2.74.65-1.78-6.5-7.48-16.66-14.26-16.79v-12c0-3 4.36-5.57 10-5.94.4933333-.04.9933333-.06 1.5-.06 6.35 0 11.5 2.69 11.5 6z" fill="#cfd8dc"/><path id="Shape" d="m51 6v22c0 2.64-2.39 4.93-5.94 6.12h-.06c-.8939828.2913686-1.8104011.5087671-2.74.65-1.69-6-6.1-14-11.5-16.2.34-.85.24 1.12.24-12.6 0-3 4.36-5.57 10-5.94 5.64.4 10 2.97 10 5.97z" fill="#f5f5f5"/><path id="Shape" d="m14 54v3c0 .5522847-.4477153 1-1 1h-8c-.55228475 0-1-.4477153-1-1v-3z" fill="#6d4122"/><path id="Shape" d="m54 54v3c0 .5522847-.4477153 1-1 1h-8c-.5522847 0-1-.4477153-1-1v-3z" fill="#6d4122"/><path id="Shape" d="m58 50v3c0 .5522847-.4477153 1-1 1h-56c-.55228475 0-1-.4477153-1-1v-3z" fill="#783e22"/><path id="Shape" d="m55 50v3c0 .5522847-.4477153 1-1 1h-53c-.55228475 0-1-.4477153-1-1v-3z" fill="#a0522d"/><path id="Shape" d="m58 23v27h-58v-27c0-.5522847.44771525-1 1-1h56c.5522847 0 1 .4477153 1 1z" fill="#f57c00"/><path id="Shape" d="m55 23v27h-55v-27c0-.5522847.44771525-1 1-1h53c.5522847 0 1 .4477153 1 1z" fill="#ff9801"/><path id="Shape" d="m37 45.8h-12c-5.79-.5-9.55-2.17-8.92-7.81.8-7.26 7.31-20 14.8-20 6.85 0 12.51 10.16 14.38 16.8 1.94 6.87.32 10.27-8.26 11.01z" fill="#cfd8dc"/><path id="Shape" d="m34 45.8h-9c-5.79-.5-9.55-2.17-8.92-7.81.75-6.8 6.49-18.31 13.29-19.82 6 1.29 11.06 10.13 12.89 16.63 1.94 6.86.32 10.26-8.26 11z" fill="#f5f5f5"/><path id="Shape" d="m37.25 34v11.8c-3.9954448.26997-8.0045552.26997-12 0v-11.8c0-1.6568542 1.3431458-3 3-3h6c.7956495 0 1.5587112.3160705 2.1213203.8786797.5626092.5626091.8786797 1.3256708.8786797 2.1213203z" fill="#00695c"/><path id="Shape" d="m34.25 34v11.8c-2.9949625.2458667-6.0050375.2458667-9 0v-11.8c0-1.6568542 1.3431458-3 3-3h3c.7956495 0 1.5587112.3160705 2.1213203.8786797.5626092.5626091.8786797 1.3256708.8786797 2.1213203z" fill="#009688"/><path id="Shape" d="m21.37 9.94c-3.7845264 1.4199499-7.9554736 1.4199499-11.74 0-.39548448-.1435417-.65882556-.51927183-.65882556-.94s.26334108-.7964583.65882556-.94c3.7845264-1.41994993 7.9554736-1.41994993 11.74 0 .3954845.1435417.6588256.51927183.6588256.94s-.2633411.7964583-.6588256.94z" fill="#ff9801"/><path id="Shape" d="m21 14.27v11c-2.5152258 3.8510197-4.1915747 8.1884022-4.92 12.73-4.97.25-12.08-2.22-12.08-7v-22c0 4.77 9.76 7.36 17 5.27z" fill="#607d8b"/><path id="Shape" d="m27 9v10.09c-2.4540125 1.5475956-4.5094084 3.6509508-6 6.14v-11c3.58-.98 6-2.96 6-5.23z" fill="#37474f"/><path id="Shape" d="m48.37 6.94c-3.7845264 1.41994993-7.9554736 1.41994993-11.74 0-.3954845-.1435417-.6588256-.51927183-.6588256-.94s.2633411-.7964583.6588256-.94c3.7845264-1.41994993 7.9554736-1.41994993 11.74 0 .3954845.1435417.6588256.51927183.6588256.94s-.2633411.7964583-.6588256.94z" fill="#ff9801"/><path id="Shape" d="m54 6v22c0 2.66-2.42 5-6 6.14v-22.87c2.65-.75 6-2.53 6-5.27z" fill="#37474f"/><path id="Shape" d="m48.19 11.21v22.88c-.8939828.2913686-1.8104011.5087671-2.74.65-2-7-7.64-16.68-14.26-16.8v-12c0 4.77 9.81 7.35 17 5.27z" fill="#607d8b"/></g><g id="Layer_5" fill="#000"><path id="Shape" d="m10.24 11.86c4.0355904 1.5352247 8.4944096 1.5352247 12.53 0 .7567451-.3050015 1.2523537-1.0391023 1.2523537-1.855 0-.81589772-.4956086-1.54999854-1.2523537-1.855-4.0366126-1.52965245-8.4933874-1.52965245-12.53 0-.75674513.30500146-1.25235369 1.03910228-1.25235369 1.855 0 .8158977.49560856 1.5499985 1.25235369 1.855zm11.76-1.86c-3.543864 1.3420529-7.456136 1.3420529-11 0 3.5428429-1.34762105 7.4571571-1.34762105 11 0z"/><path id="Shape" d="m37.24 8.86c4.0355904 1.5352247 8.4944096 1.5352247 12.53 0 .7567451-.30500146 1.2523537-1.03910228 1.2523537-1.855s-.4956086-1.54999854-1.2523537-1.855c-4.0366126-1.52965245-8.4933874-1.52965245-12.53 0-.7567451.30500146-1.2523537 1.03910228-1.2523537 1.855s.4956086 1.54999854 1.2523537 1.855zm11.76-1.86c-3.543864 1.34205289-7.456136 1.34205289-11 0 3.5428429-1.34762105 7.4571571-1.34762105 11 0z"/><path id="Shape" d="m58 22h-2v-15c0-3.93-5.49-7-12.5-7s-12.5 3.08-12.5 7v11c-.6836625.0838626-1.3549979.2483398-2 .49v-8.49c0-3.93-5.49-7-12.5-7s-12.5 3.08-12.5 7v12h-2c-1.1045695 0-2 .8954305-2 2v30c0 1.1045695.8954305 2 2 2h2v2c0 1.1045695.8954305 2 2 2h8c1.1045695 0 2-.8954305 2-2v-2h28v2c0 1.1045695.8954305 2 2 2h8c1.1045695 0 2-.8954305 2-2v-2h2c1.1045695 0 2-.8954305 2-2v-30c0-1.1045695-.8954305-2-2-2zm-21 23.87c-3.3309033.1800002-6.6690967.1800002-10 0v-10.87c0-1.1045695.8954305-2 2-2h6c1.1045695 0 2 .8954305 2 2zm-2-14.87h-6c-2.209139 0-4 1.790861-4 4v10.69c-4.64-.56-7-2-7-5.43 0-5.55 6.31-20.26 13.88-20.26s14.12 14.71 14.12 20.26c0 3.43-2.36 4.87-7 5.43v-10.69c0-2.209139-1.790861-4-4-4zm-29-17.15c3.61 3.13 10.22 3.7 15 2.7v9.45c-2.3290763 3.6662231-3.9503978 7.7364863-4.78 12-5.57-.09-10.22-2.8-10.22-6zm27 4.24v-7.24c3.61 3.13 10.22 3.7 15 2.7v20.86c-.34.09-.68.18-1 .25-2.19-6.87-7.46-15.66-14-16.57zm17-5.09c1.4587786-.4585643 2.8164694-1.1917173 4-2.16v18.16c0 1.83-1.55 3.55-4 4.68zm-6.5-11c6.28 0 10.5 2.59 10.5 5 0 1.66-2 3.4-5.28 4.32-1.701023.462781-3.4571863.6915533-5.22.68-6.28 0-10.5-2.58-10.5-5s4.22-5 10.5-5zm-20.5 21.23v-7.23c1.4587786-.4585643 2.8164694-1.1917173 4-2.16v5.71c-1.5205794 1.0061053-2.8708868 2.248388-4 3.68zm-6.5-18.23c6.28 0 10.5 2.59 10.5 5 0 1.66-2 3.4-5.3 4.33-1.6947877.458826-3.4442597.6842387-5.2.67-6.28 0-10.5-2.58-10.5-5s4.22-5 10.5-5zm-12.5 19v8c0 4.38 5.24 7.82 12 8-.21 7.74 8.37 8 16 8 6.75 0 16 0 16-7.75-.0318375-1.2385876-.2029133-2.4696623-.51-3.67 5.06-1.06 8.51-4.08 8.51-7.58v-5h2v18h-3c-.5522847 0-1 .4477153-1 1s.4477153 1 1 1h3v2h-5c-.5522847 0-1 .4477153-1 1s.4477153 1 1 1h5v2h-56v-2h2c.55228475 0 1-.4477153 1-1s-.44771525-1-1-1h-2v-2h7c.55228475 0 1-.4477153 1-1s-.44771525-1-1-1h-7v-18zm10 34h-8v-2h8zm40 0h-8v-2h8zm-52-4v-2h56v2z"/></g></g></svg>